<svg width="800" height="300" viewBox="0 0 800 300" fill="none" xmlns="http://www.w3.org/2000/svg">
  <!-- Background -->
  <rect width="800" height="300" fill="#09090B"/>
  
  <!-- Subtle Grid -->
  <g stroke="#ffffff" stroke-width="1" opacity="0.03">
    <path d="M0 50h800M0 100h800M0 150h800M0 200h800M0 250h800"/>
    <path d="M100 0v300M200 0v300M300 0v300M400 0v300M500 0v300M600 0v300M700 0v300"/>
  </g>

  <!-- Title & Description -->
  <g transform="translate(400, 150)" text-anchor="middle">
    <!-- Icon/Logo Placeholder -->
    <path d="M-20 -50 L0 -70 L20 -50 L20 -30 L-20 -30 Z" fill="#09090B" stroke="#DEA584" stroke-width="2" stroke-linejoin="round"/>
    <circle cx="0" cy="-45" r="4" fill="#DEA584" />
    <path d="M-10 -30 L-10 -15 M10 -30 L10 -15 M0 -30 L0 -10" stroke="#DEA584" stroke-width="2" stroke-linecap="round"/>

    <text x="0" y="20" font-family="system-ui, -apple-system, sans-serif" font-size="36" font-weight="600" fill="#FAFAFA" letter-spacing="-0.02em">
      Mythos
    </text>
    <text x="0" y="55" font-family="system-ui, -apple-system, sans-serif" font-size="16" font-weight="400" fill="#A1A1AA">
      World Development Environment for Novelists
    </text>
  </g>

  <!-- Bottom Border -->
  <rect x="0" y="299" width="800" height="1" fill="#27272A"/>
</svg>
